<?xml version="1.0" encoding="UTF-8"?><svg xmlns="http://www.w3.org/2000/svg" width="1180" height="610" viewBox="0 0 1180 610" role="img" aria-label="Abhinand SD — Software Engineer"><title>Abhinand SD — Software Engineer</title><defs><clipPath id="rootClip"><rect x="0" y="0" width="1180" height="610" rx="28"/></clipPath><clipPath id="clipL"><rect x="28" y="28" width="420" height="554" rx="20"/></clipPath><clipPath id="clipR"><rect x="468" y="28" width="684" height="554" rx="20"/></clipPath><linearGradient id="accent" x1="0" y1="0" x2="1" y2="0"><stop offset="0" stop-color="#2563EB"><animate attributeName="stop-color" values="#2563EB;#06B6D4;#10B981;#2563EB" dur="9s" repeatCount="indefinite"/></stop><stop offset="0.5" stop-color="#06B6D4"><animate attributeName="stop-color" values="#06B6D4;#10B981;#2563EB;#06B6D4" dur="9s" repeatCount="indefinite"/></stop><stop offset="1" stop-color="#10B981"><animate attributeName="stop-color" values="#10B981;#2563EB;#06B6D4;#10B981" dur="9s" repeatCount="indefinite"/></stop></linearGradient><linearGradient id="agrad" gradientUnits="userSpaceOnUse" x1="78" y1="100" x2="398" y2="460"><stop offset="0" stop-color="#2563EB"><animate attributeName="stop-color" values="#2563EB;#06B6D4;#10B981;#2563EB" dur="12s" repeatCount="indefinite"/></stop><stop offset="0.5" stop-color="#06B6D4"><animate attributeName="stop-color" values="#06B6D4;#10B981;#2563EB;#06B6D4" dur="12s" repeatCount="indefinite"/></stop><stop offset="1" stop-color="#10B981"><animate attributeName="stop-color" values="#10B981;#2563EB;#06B6D4;#10B981" dur="12s" repeatCount="indefinite"/></stop></linearGradient><linearGradient id="panelG" x1="0" y1="0" x2="0" y2="1"><stop offset="0" stop-color="#F1F5F9"/><stop offset="1" stop-color="#F8FAFC"/></linearGradient><linearGradient id="glassG" x1="0" y1="0" x2="0" y2="1"><stop offset="0" stop-color="#FFFFFF" stop-opacity="0.55"/><stop offset="1" stop-color="#FFFFFF" stop-opacity="0"/></linearGradient><linearGradient id="sheenG" x1="0" y1="0" x2="1" y2="0"><stop offset="0" stop-color="#2563EB" stop-opacity="0"/><stop offset="0.5" stop-color="#2563EB" stop-opacity="0.045"/><stop offset="1" stop-color="#2563EB" stop-opacity="0"/></linearGradient><linearGradient id="scanG" x1="0" y1="0" x2="0" y2="1"><stop offset="0" stop-color="#2563EB" stop-opacity="0"/><stop offset="0.5" stop-color="#2563EB" stop-opacity="0.035"/><stop offset="1" stop-color="#2563EB" stop-opacity="0"/></linearGradient><linearGradient id="bandG" x1="0" y1="0" x2="0" y2="1"><stop offset="0" stop-color="#2563EB" stop-opacity="0"/><stop offset="0.5" stop-color="#2563EB" stop-opacity="0.07"/><stop offset="1" stop-color="#2563EB" stop-opacity="0"/></linearGradient><linearGradient id="divG" x1="0" y1="0" x2="1" y2="0"><stop offset="0" stop-color="#0F172A" stop-opacity="0"/><stop offset="0.5" stop-color="#0F172A" stop-opacity="0.14"/><stop offset="1" stop-color="#0F172A" stop-opacity="0"/></linearGradient><linearGradient id="shimmer" gradientUnits="userSpaceOnUse" x1="0" y1="0" x2="1180" y2="80"><stop offset="0.35" stop-color="#06B6D4" stop-opacity="0"/><stop offset="0.5" stop-color="#06B6D4" stop-opacity="0.5"/><stop offset="0.65" stop-color="#06B6D4" stop-opacity="0"/></linearGradient><radialGradient id="blob0"><stop offset="0" stop-color="#2563EB" stop-opacity="0.08"/><stop offset="1" stop-color="#2563EB" stop-opacity="0"/></radialGradient><radialGradient id="blob1"><stop offset="0" stop-color="#06B6D4" stop-opacity="0.07"/><stop offset="1" stop-color="#06B6D4" stop-opacity="0"/></radialGradient><radialGradient id="blob2"><stop offset="0" stop-color="#10B981" stop-opacity="0.06"/><stop offset="1" stop-color="#10B981" stop-opacity="0"/></radialGradient><radialGradient id="auraG"><stop offset="0" stop-color="#06B6D4" stop-opacity="0.7"/><stop offset="1" stop-color="#06B6D4" stop-opacity="0"/></radialGradient><filter id="softGlow" x="-40%" y="-40%" width="180%" height="180%"><feGaussianBlur stdDeviation="6" result="b"/><feMerge><feMergeNode in="b"/><feMergeNode in="SourceGraphic"/></feMerge></filter><filter id="asciiGlow" x="-25%" y="-25%" width="150%" height="150%"><feGaussianBlur stdDeviation="2.2" result="b"/><feMerge><feMergeNode in="b"/><feMergeNode in="SourceGraphic"/></feMerge></filter><filter id="cardShadow" x="-15%" y="-15%" width="130%" height="140%"><feGaussianBlur in="SourceAlpha" stdDeviation="12"/><feOffset dy="8" result="ob"/><feFlood flood-color="#475569" flood-opacity="0.14"/><feComposite in2="ob" operator="in" result="sh"/><feMerge><feMergeNode in="sh"/><feMergeNode in="SourceGraphic"/></feMerge></filter><filter id="noiseF" x="0" y="0" width="100%" height="100%"><feTurbulence type="fractalNoise" baseFrequency="0.9" numOctaves="2" stitchTiles="stitch" result="n"/><feColorMatrix in="n" type="matrix" values="0 0 0 0 0  0 0 0 0 0  0 0 0 0 0  0 0 0 0.03 0"/></filter><clipPath id="al0"><rect x="78" y="94.5" width="320" height="16"/></clipPath><clipPath id="al1"><rect x="78" y="109.5" width="320" height="16"/></clipPath><clipPath id="al2"><rect x="78" y="124.5" width="320" height="16"/></clipPath><clipPath id="al3"><rect x="78" y="139.5" width="320" height="16"/></clipPath><clipPath id="al4"><rect x="78" y="154.5" width="320" height="16"/></clipPath><clipPath id="al5"><rect x="78" y="169.5" width="320" height="16"/></clipPath><clipPath id="al6"><rect x="78" y="184.5" width="320" height="16"/></clipPath><clipPath id="al7"><rect x="78" y="199.5" width="320" height="16"/></clipPath><clipPath id="al8"><rect x="78" y="214.5" width="320" height="16"/></clipPath><clipPath id="al9"><rect x="78" y="229.5" width="320" height="16"/></clipPath><clipPath id="al10"><rect x="78" y="244.5" width="320" height="16"/></clipPath><clipPath id="al11"><rect x="78" y="259.5" width="320" height="16"/></clipPath><clipPath id="al12"><rect x="78" y="274.5" width="320" height="16"/></clipPath><clipPath id="al13"><rect x="78" y="289.5" width="320" height="16"/></clipPath><clipPath id="al14"><rect x="78" y="304.5" width="320" height="16"/></clipPath><clipPath id="al15"><rect x="78" y="319.5" width="320" height="16"/></clipPath><clipPath id="al16"><rect x="78" y="334.5" width="320" height="16"/></clipPath><clipPath id="al17"><rect x="78" y="349.5" width="320" height="16"/></clipPath><clipPath id="al18"><rect x="78" y="364.5" width="320" height="16"/></clipPath><clipPath id="al19"><rect x="78" y="379.5" width="320" height="16"/></clipPath><clipPath id="al20"><rect x="78" y="394.5" width="320" height="16"/></clipPath><clipPath id="al21"><rect x="78" y="409.5" width="320" height="16"/></clipPath><clipPath id="al22"><rect x="78" y="424.5" width="320" height="16"/></clipPath><clipPath id="wc"><rect x="518" y="92" width="49" height="17"/></clipPath><clipPath id="pc0"><rect x="520" y="205" width="153" height="19"/></clipPath><clipPath id="pc1"><rect x="520" y="205" width="0" height="19"/></clipPath><clipPath id="pc2"><rect x="520" y="205" width="0" height="19"/></clipPath><clipPath id="pc3"><rect x="520" y="205" width="0" height="19"/></clipPath><clipPath id="pc4"><rect x="520" y="205" width="0" height="19"/></clipPath><clipPath id="fc"><rect x="66" y="506" width="142.5" height="18"/></clipPath></defs><g clip-path="url(#rootClip)"><rect x="0" y="0" width="1180" height="610" fill="#FFFFFF"/><circle cx="160" cy="120" r="280" fill="url(#blob0)"></circle><circle cx="1030" cy="130" r="260" fill="url(#blob1)"></circle><circle cx="640" cy="590" r="270" fill="url(#blob2)"></circle><circle cx="238" cy="300" r="185" fill="url(#auraG)" opacity="0.04"></circle><circle cx="95" cy="515" r="1.6" fill="#06B6D4" opacity="0.4"></circle><circle cx="340" cy="88" r="1.3" fill="#2563EB" opacity="0.4"></circle><circle cx="556" cy="300" r="1.8" fill="#10B981" opacity="0.4"></circle><circle cx="724" cy="78" r="1.4" fill="#06B6D4" opacity="0.4"></circle><circle cx="884" cy="470" r="1.9" fill="#2563EB" opacity="0.4"></circle><circle cx="1098" cy="318" r="1.5" fill="#10B981" opacity="0.4"></circle><circle cx="1032" cy="556" r="1.3" fill="#06B6D4" opacity="0.4"></circle><circle cx="204" cy="296" r="1.2" fill="#2563EB" opacity="0.4"></circle><circle cx="648" cy="540" r="1.5" fill="#06B6D4" opacity="0.4"></circle><g><rect x="28" y="28" width="420" height="554" rx="20" fill="url(#panelG)" fill-opacity="0.92" stroke="rgba(15,23,42,0.09)" stroke-width="1" filter="url(#cardShadow)"/><g clip-path="url(#clipL)"><rect x="29" y="29" width="418" height="130" rx="19" fill="url(#glassG)"/></g><text x="52" y="61" font-family="'SF Mono','Cascadia Code','Fira Code','JetBrains Mono',Consolas,'DejaVu Sans Mono',monospace" font-size="12" fill="#64748B">// ascii · portrait</text><circle cx="416" cy="57" r="3" fill="#10B981"></circle><text x="408" y="61" text-anchor="end" font-family="'SF Mono','Cascadia Code','Fira Code','JetBrains Mono',Consolas,'DejaVu Sans Mono',monospace" font-size="10.5" fill="#10B981" opacity="0.85">live</text><g filter="url(#asciiGlow)"><g><g clip-path="url(#al0)"><text x="238" y="107.5" text-anchor="middle" xml:space="preserve" font-family="'SF Mono','Cascadia Code','Fira Code','JetBrains Mono',Consolas,'DejaVu Sans Mono',monospace" font-size="14" font-weight="600" textLength="302.4" lengthAdjust="spacing" fill="url(#agrad)">             ..:----:..             </text></g><g clip-path="url(#al1)"><text x="238" y="122.5" text-anchor="middle" xml:space="preserve" font-family="'SF Mono','Cascadia Code','Fira Code','JetBrains Mono',Consolas,'DejaVu Sans Mono',monospace" font-size="14" font-weight="600" textLength="302.4" lengthAdjust="spacing" fill="url(#agrad)">           .-*%@@@@@@%*-..          </text></g><g clip-path="url(#al2)"><text x="238" y="137.5" text-anchor="middle" xml:space="preserve" font-family="'SF Mono','Cascadia Code','Fira Code','JetBrains Mono',Consolas,'DejaVu Sans Mono',monospace" font-size="14" font-weight="600" textLength="302.4" lengthAdjust="spacing" fill="url(#agrad)">         .=%@@%#++++#%@@#=.         </text></g><g clip-path="url(#al3)"><text x="238" y="152.5" text-anchor="middle" xml:space="preserve" font-family="'SF Mono','Cascadia Code','Fira Code','JetBrains Mono',Consolas,'DejaVu Sans Mono',monospace" font-size="14" font-weight="600" textLength="302.4" lengthAdjust="spacing" fill="url(#agrad)">        :*@@#=--:::::-=#@@*:        </text></g><g clip-path="url(#al4)"><text x="238" y="167.5" text-anchor="middle" xml:space="preserve" font-family="'SF Mono','Cascadia Code','Fira Code','JetBrains Mono',Consolas,'DejaVu Sans Mono',monospace" font-size="14" font-weight="600" textLength="302.4" lengthAdjust="spacing" fill="url(#agrad)">       :*@%+-:.      .:-+@@*:       </text></g><g clip-path="url(#al5)"><text x="238" y="182.5" text-anchor="middle" xml:space="preserve" font-family="'SF Mono','Cascadia Code','Fira Code','JetBrains Mono',Consolas,'DejaVu Sans Mono',monospace" font-size="14" font-weight="600" textLength="302.4" lengthAdjust="spacing" fill="url(#agrad)">      .+@@=:.          .:=%@+.      </text></g><g clip-path="url(#al6)"><text x="238" y="197.5" text-anchor="middle" xml:space="preserve" font-family="'SF Mono','Cascadia Code','Fira Code','JetBrains Mono',Consolas,'DejaVu Sans Mono',monospace" font-size="14" font-weight="600" textLength="302.4" lengthAdjust="spacing" fill="url(#agrad)">      -%@+-.            .-+@%-      </text></g><g clip-path="url(#al7)"><text x="238" y="212.5" text-anchor="middle" xml:space="preserve" font-family="'SF Mono','Cascadia Code','Fira Code','JetBrains Mono',Consolas,'DejaVu Sans Mono',monospace" font-size="14" font-weight="600" textLength="302.4" lengthAdjust="spacing" fill="url(#agrad)">     .=@%=:..::..  ..:::.:=%@+.     </text></g><g clip-path="url(#al8)"><text x="238" y="227.5" text-anchor="middle" xml:space="preserve" font-family="'SF Mono','Cascadia Code','Fira Code','JetBrains Mono',Consolas,'DejaVu Sans Mono',monospace" font-size="14" font-weight="600" textLength="302.4" lengthAdjust="spacing" fill="url(#agrad)">     .*@#--+@@@@=..=@@@@+--#@*.     </text></g><g clip-path="url(#al9)"><text x="238" y="242.5" text-anchor="middle" xml:space="preserve" font-family="'SF Mono','Cascadia Code','Fira Code','JetBrains Mono',Consolas,'DejaVu Sans Mono',monospace" font-size="14" font-weight="600" textLength="302.4" lengthAdjust="spacing" fill="url(#agrad)">     .*@*-...:..    ..:...-#@*.     </text></g><g clip-path="url(#al10)"><text x="238" y="257.5" text-anchor="middle" xml:space="preserve" font-family="'SF Mono','Cascadia Code','Fira Code','JetBrains Mono',Consolas,'DejaVu Sans Mono',monospace" font-size="14" font-weight="600" textLength="302.4" lengthAdjust="spacing" fill="url(#agrad)">     .+@#-:              :-#@+.     </text></g><g clip-path="url(#al11)"><text x="238" y="272.5" text-anchor="middle" xml:space="preserve" font-family="'SF Mono','Cascadia Code','Fira Code','JetBrains Mono',Consolas,'DejaVu Sans Mono',monospace" font-size="14" font-weight="600" textLength="302.4" lengthAdjust="spacing" fill="url(#agrad)">      -@@+:.            .:+@@=.     </text></g><g clip-path="url(#al12)"><text x="238" y="287.5" text-anchor="middle" xml:space="preserve" font-family="'SF Mono','Cascadia Code','Fira Code','JetBrains Mono',Consolas,'DejaVu Sans Mono',monospace" font-size="14" font-weight="600" textLength="302.4" lengthAdjust="spacing" fill="url(#agrad)">      :*@#=:. ..:--:.. .:=#@*.      </text></g><g clip-path="url(#al13)"><text x="238" y="302.5" text-anchor="middle" xml:space="preserve" font-family="'SF Mono','Cascadia Code','Fira Code','JetBrains Mono',Consolas,'DejaVu Sans Mono',monospace" font-size="14" font-weight="600" textLength="302.4" lengthAdjust="spacing" fill="url(#agrad)">       -%@#=:.  ...  ..:=#@%-       </text></g><g clip-path="url(#al14)"><text x="238" y="317.5" text-anchor="middle" xml:space="preserve" font-family="'SF Mono','Cascadia Code','Fira Code','JetBrains Mono',Consolas,'DejaVu Sans Mono',monospace" font-size="14" font-weight="600" textLength="302.4" lengthAdjust="spacing" fill="url(#agrad)">       .-%@%+-::....::-+%@%-        </text></g><g clip-path="url(#al15)"><text x="238" y="332.5" text-anchor="middle" xml:space="preserve" font-family="'SF Mono','Cascadia Code','Fira Code','JetBrains Mono',Consolas,'DejaVu Sans Mono',monospace" font-size="14" font-weight="600" textLength="302.4" lengthAdjust="spacing" fill="url(#agrad)">        .:*@@%*+====+*%@@*:.        </text></g><g clip-path="url(#al16)"><text x="238" y="347.5" text-anchor="middle" xml:space="preserve" font-family="'SF Mono','Cascadia Code','Fira Code','JetBrains Mono',Consolas,'DejaVu Sans Mono',monospace" font-size="14" font-weight="600" textLength="302.4" lengthAdjust="spacing" fill="url(#agrad)">          .-*%@@@@@@@@%*-.          </text></g><g clip-path="url(#al17)"><text x="238" y="362.5" text-anchor="middle" xml:space="preserve" font-family="'SF Mono','Cascadia Code','Fira Code','JetBrains Mono',Consolas,'DejaVu Sans Mono',monospace" font-size="14" font-weight="600" textLength="302.4" lengthAdjust="spacing" fill="url(#agrad)">            .:-=+**+=-:.            </text></g><g clip-path="url(#al18)"><text x="238" y="377.5" text-anchor="middle" xml:space="preserve" font-family="'SF Mono','Cascadia Code','Fira Code','JetBrains Mono',Consolas,'DejaVu Sans Mono',monospace" font-size="14" font-weight="600" textLength="302.4" lengthAdjust="spacing" fill="url(#agrad)">           ..::--==--::..           </text></g><g clip-path="url(#al19)"><text x="238" y="392.5" text-anchor="middle" xml:space="preserve" font-family="'SF Mono','Cascadia Code','Fira Code','JetBrains Mono',Consolas,'DejaVu Sans Mono',monospace" font-size="14" font-weight="600" textLength="302.4" lengthAdjust="spacing" fill="url(#agrad)">       .:=*%@@@@%%%%@@@@%*=:.       </text></g><g clip-path="url(#al20)"><text x="238" y="407.5" text-anchor="middle" xml:space="preserve" font-family="'SF Mono','Cascadia Code','Fira Code','JetBrains Mono',Consolas,'DejaVu Sans Mono',monospace" font-size="14" font-weight="600" textLength="302.4" lengthAdjust="spacing" fill="url(#agrad)">    .-*%@%#+-::.......:-+#%@%*-.    </text></g><g clip-path="url(#al21)"><text x="238" y="422.5" text-anchor="middle" xml:space="preserve" font-family="'SF Mono','Cascadia Code','Fira Code','JetBrains Mono',Consolas,'DejaVu Sans Mono',monospace" font-size="14" font-weight="600" textLength="302.4" lengthAdjust="spacing" fill="url(#agrad)">  .=#@%*-..              ..-*%@#=.  </text></g><g clip-path="url(#al22)"><text x="238" y="437.5" text-anchor="middle" xml:space="preserve" font-family="'SF Mono','Cascadia Code','Fira Code','JetBrains Mono',Consolas,'DejaVu Sans Mono',monospace" font-size="14" font-weight="600" textLength="302.4" lengthAdjust="spacing" fill="url(#agrad)">.-*@@+:.                    .:+%@*-.</text></g></g></g><g><rect x="84" y="96" width="308" height="1" fill="#0F172A" opacity="0.055"/><rect x="84" y="114" width="308" height="1" fill="#0F172A" opacity="0.055"/><rect x="84" y="132" width="308" height="1" fill="#0F172A" opacity="0.055"/><rect x="84" y="150" width="308" height="1" fill="#0F172A" opacity="0.055"/><rect x="84" y="168" width="308" height="1" fill="#0F172A" opacity="0.055"/><rect x="84" y="186" width="308" height="1" fill="#0F172A" opacity="0.055"/><rect x="84" y="204" width="308" height="1" fill="#0F172A" opacity="0.055"/><rect x="84" y="222" width="308" height="1" fill="#0F172A" opacity="0.055"/><rect x="84" y="240" width="308" height="1" fill="#0F172A" opacity="0.055"/><rect x="84" y="258" width="308" height="1" fill="#0F172A" opacity="0.055"/><rect x="84" y="276" width="308" height="1" fill="#0F172A" opacity="0.055"/><rect x="84" y="294" width="308" height="1" fill="#0F172A" opacity="0.055"/><rect x="84" y="312" width="308" height="1" fill="#0F172A" opacity="0.055"/><rect x="84" y="330" width="308" height="1" fill="#0F172A" opacity="0.055"/><rect x="84" y="348" width="308" height="1" fill="#0F172A" opacity="0.055"/><rect x="84" y="366" width="308" height="1" fill="#0F172A" opacity="0.055"/><rect x="84" y="384" width="308" height="1" fill="#0F172A" opacity="0.055"/><rect x="84" y="402" width="308" height="1" fill="#0F172A" opacity="0.055"/><rect x="84" y="420" width="308" height="1" fill="#0F172A" opacity="0.055"/><rect x="84" y="438" width="308" height="1" fill="#0F172A" opacity="0.055"/></g><rect x="80" y="92" width="316" height="26" fill="url(#bandG)"></rect><text x="52" y="520" font-family="'SF Mono','Cascadia Code','Fira Code','JetBrains Mono',Consolas,'DejaVu Sans Mono',monospace" font-size="12.5" fill="#10B981">$</text><g clip-path="url(#fc)"><text x="66" y="520" font-family="'SF Mono','Cascadia Code','Fira Code','JetBrains Mono',Consolas,'DejaVu Sans Mono',monospace" font-size="12.5" xml:space="preserve" textLength="142.5" lengthAdjust="spacing" fill="#475569">./render --portrait</text></g><g><text x="216" y="520" font-family="'SF Mono','Cascadia Code','Fira Code','JetBrains Mono',Consolas,'DejaVu Sans Mono',monospace" font-size="12.5" fill="#10B981">✓</text></g><rect x="212.5" y="508" width="7.5" height="14" fill="#06B6D4" opacity="0.85"/></g><g><rect x="468" y="28" width="684" height="554" rx="20" fill="url(#panelG)" fill-opacity="0.92" stroke="rgba(15,23,42,0.09)" stroke-width="1" filter="url(#cardShadow)"/><g clip-path="url(#clipR)"><rect x="469" y="29" width="682" height="44" fill="rgba(15,23,42,0.025)"/><rect x="469" y="29" width="682" height="120" rx="19" fill="url(#glassG)" opacity="0.6"/></g><circle cx="494" cy="50" r="5" fill="#FF5F57" opacity="0.95"/><circle cx="511" cy="50" r="5" fill="#FEBC2E" opacity="0.95"/><circle cx="528" cy="50" r="5" fill="#28C840" opacity="0.95"/><text x="810" y="54" text-anchor="middle" font-family="'SF Mono','Cascadia Code','Fira Code','JetBrains Mono',Consolas,'DejaVu Sans Mono',monospace" font-size="11.5" fill="#64748B">abhinand@dev: ~/portfolio — zsh</text><rect x="469" y="71" width="682" height="1" fill="rgba(15,23,42,0.06)"/><text x="502" y="105" font-family="'SF Mono','Cascadia Code','Fira Code','JetBrains Mono',Consolas,'DejaVu Sans Mono',monospace" font-size="13.5" fill="#10B981">$</text><g clip-path="url(#wc)"><text x="518" y="105" font-family="'SF Mono','Cascadia Code','Fira Code','JetBrains Mono',Consolas,'DejaVu Sans Mono',monospace" font-size="13.5" textLength="48.6" lengthAdjust="spacing" fill="#475569">whoami</text></g><rect x="570" y="93" width="8" height="14" fill="#06B6D4" opacity="0.85"/><g><text x="502" y="143" font-family="'SF Mono','Cascadia Code','Fira Code','JetBrains Mono',Consolas,'DejaVu Sans Mono',monospace" font-size="15" fill="#475569">Hi 👋, I&#39;m</text></g><g><text x="500" y="185" font-family="-apple-system,'Segoe UI','Helvetica Neue',Arial,sans-serif" font-size="34" font-weight="800" letter-spacing="-0.5" fill="url(#accent)" filter="url(#softGlow)">Abhinand SD</text></g><g><text x="502" y="220" font-family="'SF Mono','Cascadia Code','Fira Code','JetBrains Mono',Consolas,'DejaVu Sans Mono',monospace" font-size="15" font-weight="700" fill="url(#accent)">❯</text><g clip-path="url(#pc0)"><text x="522" y="220" font-family="'SF Mono','Cascadia Code','Fira Code','JetBrains Mono',Consolas,'DejaVu Sans Mono',monospace" font-size="15" font-weight="500" textLength="153" lengthAdjust="spacing" fill="#0F172A">Software Engineer</text></g><g clip-path="url(#pc1)"><text x="522" y="220" font-family="'SF Mono','Cascadia Code','Fira Code','JetBrains Mono',Consolas,'DejaVu Sans Mono',monospace" font-size="15" font-weight="500" textLength="180" lengthAdjust="spacing" fill="#0F172A">Full Stack Developer</text></g><g clip-path="url(#pc2)"><text x="522" y="220" font-family="'SF Mono','Cascadia Code','Fira Code','JetBrains Mono',Consolas,'DejaVu Sans Mono',monospace" font-size="15" font-weight="500" textLength="207" lengthAdjust="spacing" fill="#0F172A">Open Source Contributor</text></g><g clip-path="url(#pc3)"><text x="522" y="220" font-family="'SF Mono','Cascadia Code','Fira Code','JetBrains Mono',Consolas,'DejaVu Sans Mono',monospace" font-size="15" font-weight="500" textLength="99" lengthAdjust="spacing" fill="#0F172A">UI Engineer</text></g><g clip-path="url(#pc4)"><text x="522" y="220" font-family="'SF Mono','Cascadia Code','Fira Code','JetBrains Mono',Consolas,'DejaVu Sans Mono',monospace" font-size="15" font-weight="500" textLength="117" lengthAdjust="spacing" fill="#0F172A">AI Enthusiast</text></g><rect x="678" y="206" width="8.5" height="16" fill="#06B6D4" opacity="0.9"/></g><rect x="502" y="243" width="616" height="1" fill="url(#divG)"/><g><g transform="translate(502,260)" fill="none" stroke="#06B6D4" stroke-width="1.5" stroke-linecap="round" stroke-linejoin="round" opacity="0.85"><path d="M8 1.8C5.5 1.8 3.5 3.8 3.5 6.3 3.5 9.6 8 14.2 8 14.2s4.5-4.6 4.5-7.9C12.5 3.8 10.5 1.8 8 1.8Z"/><circle cx="8" cy="6.2" r="1.7"/></g><text x="530" y="272" font-family="'SF Mono','Cascadia Code','Fira Code','JetBrains Mono',Consolas,'DejaVu Sans Mono',monospace" font-size="13" fill="#475569">location</text><text x="632" y="272" font-family="'SF Mono','Cascadia Code','Fira Code','JetBrains Mono',Consolas,'DejaVu Sans Mono',monospace" font-size="13" font-weight="500" fill="#0F172A">Bangalore, India</text></g><g><g transform="translate(502,291)" fill="none" stroke="#06B6D4" stroke-width="1.5" stroke-linecap="round" stroke-linejoin="round" opacity="0.85"><path d="M1.5 5.8 8 2.6l6.5 3.2L8 9 1.5 5.8Z"/><path d="M4.2 7.3v3.2c0 .9 1.7 1.9 3.8 1.9s3.8-1 3.8-1.9V7.3"/><path d="M14.5 5.8v3.4"/></g><text x="530" y="303" font-family="'SF Mono','Cascadia Code','Fira Code','JetBrains Mono',Consolas,'DejaVu Sans Mono',monospace" font-size="13" fill="#475569">education</text><text x="632" y="303" font-family="'SF Mono','Cascadia Code','Fira Code','JetBrains Mono',Consolas,'DejaVu Sans Mono',monospace" font-size="13" font-weight="500" fill="#0F172A">B.Tech CSE</text></g><g><g transform="translate(502,322)" fill="none" stroke="#06B6D4" stroke-width="1.5" stroke-linecap="round" stroke-linejoin="round" opacity="0.85"><circle cx="8" cy="8" r="5.6"/><circle cx="8" cy="8" r="2" fill="#06B6D4" stroke="none"/></g><text x="530" y="334" font-family="'SF Mono','Cascadia Code','Fira Code','JetBrains Mono',Consolas,'DejaVu Sans Mono',monospace" font-size="13" fill="#475569">focus</text><text x="632" y="334" font-family="'SF Mono','Cascadia Code','Fira Code','JetBrains Mono',Consolas,'DejaVu Sans Mono',monospace" font-size="13" font-weight="500" fill="#0F172A">Software Development</text></g><g><g transform="translate(502,353)" fill="none" stroke="#06B6D4" stroke-width="1.5" stroke-linecap="round" stroke-linejoin="round" opacity="0.85"><circle cx="8" cy="8" r="5.8"/><ellipse cx="8" cy="8" rx="2.6" ry="5.8"/><path d="M2.2 8h11.6"/></g><text x="530" y="365" font-family="'SF Mono','Cascadia Code','Fira Code','JetBrains Mono',Consolas,'DejaVu Sans Mono',monospace" font-size="13" fill="#475569">portfolio</text><text x="632" y="365" font-family="'SF Mono','Cascadia Code','Fira Code','JetBrains Mono',Consolas,'DejaVu Sans Mono',monospace" font-size="13" font-weight="500" fill="#2563EB">abhinandsdin.vercel.app</text></g><g><g transform="translate(502,384)" fill="none" stroke="#06B6D4" stroke-width="1.5" stroke-linecap="round" stroke-linejoin="round" opacity="0.85"><rect x="2" y="3.5" width="12" height="9" rx="1.6"/><path d="m2.5 4.5 5.5 4 5.5-4"/></g><text x="530" y="396" font-family="'SF Mono','Cascadia Code','Fira Code','JetBrains Mono',Consolas,'DejaVu Sans Mono',monospace" font-size="13" fill="#475569">email</text><text x="632" y="396" font-family="'SF Mono','Cascadia Code','Fira Code','JetBrains Mono',Consolas,'DejaVu Sans Mono',monospace" font-size="13" font-weight="500" fill="#2563EB">abhinandsd49@gmail.com</text></g><rect x="502" y="419" width="616" height="1" fill="url(#divG)"/><g><text x="502" y="444" font-family="'SF Mono','Cascadia Code','Fira Code','JetBrains Mono',Consolas,'DejaVu Sans Mono',monospace" font-size="12" fill="#64748B">~ stack</text></g><g id="pill0" transform="translate(533,469)"><g><rect x="-31" y="-14" width="62" height="28" rx="14" fill="rgba(15,23,42,0.035)" stroke="rgba(15,23,42,0.11)" stroke-width="1"></rect><text x="0" y="4.5" text-anchor="middle" font-family="'SF Mono','Cascadia Code','Fira Code','JetBrains Mono',Consolas,'DejaVu Sans Mono',monospace" font-size="12" font-weight="500" fill="#334155">React</text></g></g><g id="pill1" transform="translate(612.2,469)"><g><rect x="-38.2" y="-14" width="76.4" height="28" rx="14" fill="rgba(15,23,42,0.035)" stroke="rgba(15,23,42,0.11)" stroke-width="1"></rect><text x="0" y="4.5" text-anchor="middle" font-family="'SF Mono','Cascadia Code','Fira Code','JetBrains Mono',Consolas,'DejaVu Sans Mono',monospace" font-size="12" font-weight="500" fill="#334155">Next.js</text></g></g><g id="pill2" transform="translate(698.6,469)"><g><rect x="-38.2" y="-14" width="76.4" height="28" rx="14" fill="rgba(15,23,42,0.035)" stroke="rgba(15,23,42,0.11)" stroke-width="1"></rect><text x="0" y="4.5" text-anchor="middle" font-family="'SF Mono','Cascadia Code','Fira Code','JetBrains Mono',Consolas,'DejaVu Sans Mono',monospace" font-size="12" font-weight="500" fill="#334155">Node.js</text></g></g><g id="pill3" transform="translate(795.8,469)"><g><rect x="-49" y="-14" width="98" height="28" rx="14" fill="rgba(15,23,42,0.035)" stroke="rgba(15,23,42,0.11)" stroke-width="1"></rect><text x="0" y="4.5" text-anchor="middle" font-family="'SF Mono','Cascadia Code','Fira Code','JetBrains Mono',Consolas,'DejaVu Sans Mono',monospace" font-size="12" font-weight="500" fill="#334155">TypeScript</text></g></g><g id="pill4" transform="translate(896.6,469)"><g><rect x="-41.8" y="-14" width="83.6" height="28" rx="14" fill="rgba(15,23,42,0.035)" stroke="rgba(15,23,42,0.11)" stroke-width="1"></rect><text x="0" y="4.5" text-anchor="middle" font-family="'SF Mono','Cascadia Code','Fira Code','JetBrains Mono',Consolas,'DejaVu Sans Mono',monospace" font-size="12" font-weight="500" fill="#334155">Tailwind</text></g></g><g id="pill5" transform="translate(983,469)"><g><rect x="-34.6" y="-14" width="69.2" height="28" rx="14" fill="rgba(15,23,42,0.035)" stroke="rgba(15,23,42,0.11)" stroke-width="1"></rect><text x="0" y="4.5" text-anchor="middle" font-family="'SF Mono','Cascadia Code','Fira Code','JetBrains Mono',Consolas,'DejaVu Sans Mono',monospace" font-size="12" font-weight="500" fill="#334155">Python</text></g></g><g id="pill6" transform="translate(1062.2,469)"><g><rect x="-34.6" y="-14" width="69.2" height="28" rx="14" fill="rgba(15,23,42,0.035)" stroke="rgba(15,23,42,0.11)" stroke-width="1"></rect><text x="0" y="4.5" text-anchor="middle" font-family="'SF Mono','Cascadia Code','Fira Code','JetBrains Mono',Consolas,'DejaVu Sans Mono',monospace" font-size="12" font-weight="500" fill="#334155">Docker</text></g></g><g id="pill7" transform="translate(543.8,503)"><g><rect x="-41.8" y="-14" width="83.6" height="28" rx="14" fill="rgba(15,23,42,0.035)" stroke="rgba(15,23,42,0.11)" stroke-width="1"></rect><text x="0" y="4.5" text-anchor="middle" font-family="'SF Mono','Cascadia Code','Fira Code','JetBrains Mono',Consolas,'DejaVu Sans Mono',monospace" font-size="12" font-weight="500" fill="#334155">Postgres</text></g></g><g id="pill8" transform="translate(619.4,503)"><g><rect x="-23.8" y="-14" width="47.6" height="28" rx="14" fill="rgba(15,23,42,0.035)" stroke="rgba(15,23,42,0.11)" stroke-width="1"></rect><text x="0" y="4.5" text-anchor="middle" font-family="'SF Mono','Cascadia Code','Fira Code','JetBrains Mono',Consolas,'DejaVu Sans Mono',monospace" font-size="12" font-weight="500" fill="#334155">AWS</text></g></g><g id="pill9" transform="translate(677,503)"><g><rect x="-23.8" y="-14" width="47.6" height="28" rx="14" fill="rgba(15,23,42,0.035)" stroke="rgba(15,23,42,0.11)" stroke-width="1"></rect><text x="0" y="4.5" text-anchor="middle" font-family="'SF Mono','Cascadia Code','Fira Code','JetBrains Mono',Consolas,'DejaVu Sans Mono',monospace" font-size="12" font-weight="500" fill="#334155">Git</text></g></g><g id="pill10" transform="translate(741.8,503)"><g><rect x="-31" y="-14" width="62" height="28" rx="14" fill="rgba(15,23,42,0.035)" stroke="rgba(15,23,42,0.11)" stroke-width="1"></rect><text x="0" y="4.5" text-anchor="middle" font-family="'SF Mono','Cascadia Code','Fira Code','JetBrains Mono',Consolas,'DejaVu Sans Mono',monospace" font-size="12" font-weight="500" fill="#334155">Figma</text></g></g><g><g id="soc0" transform="translate(519,546)"><g><circle r="17" fill="rgba(15,23,42,0.035)" stroke="rgba(15,23,42,0.11)" stroke-width="1"/><g transform="translate(-9,-9) scale(0.75)"><path d="M12 .297c-6.63 0-12 5.373-12 12 0 5.303 3.438 9.8 8.205 11.385.6.113.82-.258.82-.577 0-.285-.01-1.04-.015-2.04-3.338.724-4.042-1.61-4.042-1.61C4.422 18.07 3.633 17.7 3.633 17.7c-1.087-.744.084-.729.084-.729 1.205.084 1.838 1.236 1.838 1.236 1.07 1.835 2.809 1.305 3.495.998.108-.776.417-1.305.76-1.605-2.665-.3-5.466-1.332-5.466-5.93 0-1.31.465-2.38 1.235-3.22-.135-.303-.54-1.523.105-3.176 0 0 1.005-.322 3.3 1.23.96-.267 1.98-.399 3-.405 1.02.006 2.04.138 3 .405 2.28-1.552 3.285-1.23 3.285-1.23.645 1.653.24 2.873.12 3.176.765.84 1.23 1.91 1.23 3.22 0 4.61-2.805 5.625-5.475 5.92.42.36.81 1.096.81 2.22 0 1.606-.015 2.896-.015 3.286 0 .315.21.69.825.57C20.565 22.092 24 17.592 24 12.297c0-6.627-5.373-12-12-12" fill="#475569"></path></g></g></g></g><g><g id="soc1" transform="translate(569,546)"><g><circle r="17" fill="rgba(15,23,42,0.035)" stroke="rgba(15,23,42,0.11)" stroke-width="1"/><g transform="translate(-9,-9) scale(0.75)"><path d="M20.447 20.452h-3.554v-5.569c0-1.328-.027-3.037-1.852-3.037-1.853 0-2.136 1.445-2.136 2.939v5.667H9.351V9h3.414v1.561h.046c.477-.9 1.637-1.85 3.37-1.85 3.601 0 4.267 2.37 4.267 5.455v6.286zM5.337 7.433c-1.144 0-2.063-.926-2.063-2.065 0-1.138.92-2.063 2.063-2.063 1.14 0 2.064.925 2.064 2.063 0 1.139-.925 2.065-2.064 2.065zm1.782 13.019H3.555V9h3.564v11.452zM22.225 0H1.771C.792 0 0 .774 0 1.729v20.542C0 23.227.792 24 1.771 24h20.451C23.2 24 24 23.227 24 22.271V1.729C24 .774 23.2 0 22.225 0z" fill="#475569"></path></g></g></g></g><g><g id="soc2" transform="translate(619,546)"><g><circle r="17" fill="rgba(15,23,42,0.035)" stroke="rgba(15,23,42,0.11)" stroke-width="1"/><g transform="translate(-9,-9) scale(0.75)"><path d="M18.901 1.153h3.68l-8.04 9.19L24 22.846h-7.406l-5.8-7.584-6.638 7.584H.474l8.6-9.83L0 1.154h7.594l5.243 6.932ZM17.61 20.644h2.039L6.486 3.24H4.298Z" fill="#475569"></path></g></g></g></g><g><g id="soc3" transform="translate(669,546)"><g><circle r="17" fill="rgba(15,23,42,0.035)" stroke="rgba(15,23,42,0.11)" stroke-width="1"/><g fill="none" stroke="#475569" stroke-width="1.6"><circle cx="0" cy="0" r="7.2"/><ellipse cx="0" cy="0" rx="3.2" ry="7.2"/><path d="M-7 0h14"/></g></g></g></g></g></g><rect x="0.75" y="0.75" width="1178.5" height="608.5" rx="27.25" fill="none" stroke="rgba(15,23,42,0.08)" stroke-width="1.5"/><rect x="0.75" y="0.75" width="1178.5" height="608.5" rx="27.25" fill="none" stroke="url(#shimmer)" stroke-width="1.5"/></svg>